<?xml version="1.0" encoding="UTF-8"?>
<svg id="_圖層_1" data-name="圖層_1" xmlns="http://www.w3.org/2000/svg" version="1.1" viewBox="0 0 1920 1080">
  <!-- Generator: Adobe Illustrator 30.4.0, SVG Export Plug-In . SVG Version: 2.1.4 Build 226)  -->
  <defs>
    <style>
      .st0 {
        fill: #fff;
      }
    </style>
  </defs>
  <path class="st0" d="M448.4,453.7h-47.2c0,0-67.2,0-67.2,0h-52.9s-2.9,0-2.9,0c-9.1-.4-19.3,4-24.7,12.5s-5.7,23.1.8,32.3c6.1,8.6,15.9,10.6,26,10.6l131.7-.3c13.1,0,24.9,5.2,32,15,7.8,10.8,9.4,24.8,4.1,37-5.3,12.5-16.9,22.3-31.3,22.3l-176.3.3v-9.9s175.4-.3,175.4-.3c15.5,0,25.6-14,25.1-28.5-.5-14.3-11.4-25.8-26.1-25.8h-29s-81.7,0-81.7,0h-32.4c-19.4-2-33.2-17.6-33-37.2.2-19.4,14.7-37.3,35.4-37.4l173.8-.5c1.3,5.7.2,9.9.2,9.9Z"/>
  <path class="st0" d="M1308,573.3h6.9c0-.1,16.1-.1,16.1-.1h10c0,.1,33.6-.2,33.6-.2,21.7-1.9,38.4-18.5,40-40.3l.2-35.9c.1-23.1-18.9-41-41.5-43h-6.8c0,0-14.4,0-14.4,0h-80.9c-1.1,0-3.5.6-3.8-.9-.6-3-.5-6,0-9.1l110.9.2c25.1,4.4,44.5,25.2,46.4,50.8l.2,39c-2.7,26-21.7,46.3-47.7,49.7l-138.5-.9c-16.1,0-26.2-19.7-26.2-19.7-3.4-5.3-4.5-11.4-4.9-18.2-1.4-21.4,14.4-42.8,37-42.9l113.7-.4c.5,3.8.4,6.3,0,9.5l-112.4.5c-17.3,0-28.3,15.3-28.1,31.4.2,16.1,11.2,30.3,27.9,30.3l62.2.2Z"/>
  <path class="st0" d="M967.1,573.4h28.1s32,0,32,0h17.7c12.3,0,23.3-6,32.3-16l.3,11.3c-9.1,10-21.8,14.8-35.7,14.7l-100.9-.5c-27.7-.1-50.3-24.9-50.3-51.9v-35.4c.9-26.6,23.1-51.7,50.8-51.8l157.3-.4c.9,4.1,0,6.7-.5,10l-14.7.4h-140.5c-24.5,0-42.8,21.5-42.8,44.9v28.3c-.1,24.2,17.4,46.3,41.8,46.4h25.3Z"/>
  <path class="st0" d="M788.4,444.3l-.3,85.6c-.1,28.1-23.9,53.1-52.2,53.1l-106.8.2c-11.4,0-28.2-8.5-35.6-16.8-11-12.4-16.1-27-16-43.7l.2-78,9.4-.2.7,85.9c.2,22.2,19.7,42.6,42.2,42.6h104.8c23,.1,42.1-19.6,43.3-42.5l.7-85.9,9.6-.3Z"/>
  <path class="st0" d="M1026.2,646.7h-31.4s-15.9.1-15.9.1h-18.1c0-.1-19.6-.2-19.6-.2h-19c0,.1-29.9,0-29.9,0v-9.6c0,0,158.3.2,158.3.2,20.1,0,36.4-13.4,37.8-34.1v-101.5c3.8-.4,6.7-.6,10.2.2l-.3,100.7c0,22.2-19.2,44-41.5,44.1h-30.6Z"/>
  <path class="st0" d="M1546,495.5l-.8,87.7h-9.8s.3-86.5.3-86.5c0-27,22.9-51.4,50.1-52.9l94.1-.7c.7,3.9.7,6.8,0,10.2l-90.6.3c-22.7,0-42,18.5-43.4,41.9Z"/>
  <path class="st0" d="M725,435.5c3.7-1.8,7.5.2,8.8,3.1,1.6,3.4.2,7.1-3.5,9s-6.1.3-7.6-2.2-1.6-8,2.3-9.9Z"/>
</svg>